[Header]
FileType HTR
DataType HTRS
FileVersion 1
NumSegments 28
NumFrames 4
DataFrameRate 24
EulerRotationOrder ZYX
CalibrationUnits mm
RotationUnits Degrees
GlobalAxisofGravity Y
BoneLengthAxis Y
ScaleFactor 1.0
[SegmentNames&Hierarchy]
waist	GLOBAL
chest	waist
head	chest
joint2	chest
right_shoulder1	joint2
right_elbow1	right_shoulder1
right_wrist1	right_elbow1
right_hand1	right_wrist1
right_finger3	right_hand1
right_finger4	right_hand1
right_finger5	right_hand1
joint3	chest
right_shoulder2	joint3
right_elbow2	right_shoulder2
right_wrist2	right_elbow2
right_hand2	right_wrist2
right_finger6	right_hand2
right_finger7	right_hand2
right_finger8	right_hand2
Center_pelvis	waist
left_pelvs	Center_pelvis
left_leg	left_pelvs
left_knee	left_leg
left_foot	left_knee
right_pelvis	Center_pelvis
right_leg	right_pelvis
right_knee	right_leg
right_foot	right_knee
[BasePosition]
waist	0	0	0	179.9999991	0	91.33221985	1
chest	0	0	0	-2.307808268e-010	-1.984983424e-008	1.332219854	1
head	0	0	0	180	-1.481061187e-024	90	1
joint2	0	0	0	4.615476202e-010	-1.707085745e-006	90	1
right_shoulder1	0	0	0	1.916575325e-008	-1.983803253e-008	-88.02506599	1
right_elbow1	0	0	0	-180	-1.948815659e-008	-12.92899665	1
right_wrist1	0	0	0	3.256551172e-010	1.942478841e-008	1.920938916	1
right_hand1	0	0	0	136.2194085	85.17676588	-133.4832578	1
right_finger3	0	0	0	154.4596717	79.84057755	147.6247455	1
right_finger4	0	0	0	154.4596717	79.84057755	147.6247455	1
right_finger5	0	0	0	154.4596717	79.84057755	147.6247455	1
joint3	0	0	0	-180	-1.89575832e-022	90	1
right_shoulder2	0	0	0	6.774897105e-015	-7.012540931e-015	-88.02506599	1
right_elbow2	0	0	0	-180	-6.888863384e-015	-12.92899665	1
right_wrist2	0	0	0	-1.240805042e-012	-7.401196581e-011	1.920938916	1
right_hand2	0	0	0	136.2194085	85.17676588	-133.4832578	1
right_finger6	0	0	0	154.4596717	79.84057755	147.6247455	1
right_finger7	0	0	0	154.4596717	79.84057755	147.6247455	1
right_finger8	0	0	0	154.4596717	79.84057755	147.6247455	1
Center_pelvis	0	0	0	-180	-8.537716493e-007	89.87586122	1
left_pelvs	0	0	0	0	0	-1.456358634	1
left_leg	0	0	0	179.9999991	0	88.69804733	1
left_knee	0	0	0	-180	-7.863991589e-009	-2.076172838	1
left_foot	0	0	0	179.9999985	-3.055580289e-010	-90.77422016	1
right_pelvis	0	0	0	0	0	-2.39554958	1
right_leg	0	0	0	0	0	-87.75885638	1
right_knee	0	0	0	179.9999991	3.702652968e-022	-2.076172838	1
right_foot	0	0	0	180	-7.405305937e-025	-90.77422016	1
[waist]
13	0	-3.152148962	0	1.823863387	-13.80161572	1.340750337	1.0
14	0	-3.152148962	0	1.823863387	-13.80161572	1.340750337	1.0
15	0	-3.152148962	0	1.823863387	-13.80161572	1.340750337	1.0
16	0	-3.152148962	0	1.823863387	-13.80161572	1.340750337	1.0
[chest]
13	22.70706367	-0.5271472931	-13.12899113	-20.82474899	29.80461884	-2.732207775	1.0
14	22.3516922	-0.5212082863	-12.94430351	-18.46171761	29.56405258	-2.740258217	1.0
15	21.72159195	-0.5106779337	-12.61683941	-14.27190113	29.13751602	-2.754532337	1.0
16	20.82805252	-0.4957450926	-12.15246582	-8.33037281	28.53264427	-2.774774551	1.0
[head]
13	20.62318993	0.1433748305	1.492195129	14.09266186	-1.716627002	-1.08582902	1.0
14	20.62318993	0.1433748305	1.492195129	12.4878273	-2.865345001	-1.062326312	1.0
15	20.62318993	0.1433748305	1.492195129	9.642345428	-4.902099609	-1.02065444	1.0
16	20.62318993	0.1433748305	1.492195129	5.60720396	-7.790396214	-0.9615600109	1.0
[joint2]
13	-1.662794352	17.01276207	0.01146764029	-39.45222855	-1.015357256	-1.707333565	1.0
14	-1.681384802	17.01229858	0.006940751802	-36.52508926	-0.9586548209	-1.611987829	1.0
15	-1.714346886	17.01148224	-0.001085725497	-31.33507156	-0.85811764	-1.44293344	1.0
16	-1.76109004	17.01031876	-0.01246797666	-23.97516823	-0.7155470252	-1.203199744	1.0
[right_shoulder1]
13	14.91590023	0.6211000085	0.9477797747	-0.1375751793	-31.78843117	-0.06272988766	1.0
14	14.91590023	0.6211000085	0.9477797747	-0.5797306895	-31.17917061	-0.2643386722	1.0
15	14.91590023	0.6211000085	0.9477797747	-1.363702297	-30.09890366	-0.6218046546	1.0
16	14.91590023	0.6211000085	0.9477797747	-2.475442886	-28.56699562	-1.128722787	1.0
[right_elbow1]
13	-13.64346027	1.083028078	-0.5017899871	4.896719933	21.7515564	0.2069105953	1.0
14	-13.64346027	1.083028078	-0.5017899871	4.873590469	20.89361191	0.1314669997	1.0
15	-13.64346027	1.083028078	-0.5017899871	4.83258152	19.37241745	-0.002299576765	1.0
16	-13.64346027	1.083028078	-0.5017899871	4.774425983	17.21523476	-0.1919923127	1.0
[right_wrist1]
13	-11.03366089	0.1770176888	0.6298624873	-9.548214912	20.4698925	-33.68107224	1.0
14	-10.90641403	0.7303527594	0.6790756583	-8.809705734	20.4888382	-31.38655663	1.0
15	-10.68079472	1.711453319	0.766333878	-7.500277042	20.52242279	-27.31823158	1.0
16	-10.36084652	3.102739811	0.8900735378	-5.64339304	20.5700531	-21.54898262	1.0
[right_hand1]
13	-7.870647907	-0.6475095749	0.1588415354	23.03578949	20.94712257	23.42302322	1.0
14	-7.870647907	-0.6475095749	0.1588415354	22.31841087	21.43924522	23.06956673	1.0
15	-7.870647907	-0.6475095749	0.1588415354	21.04644966	22.31181335	22.44286537	1.0
16	-7.870647907	-0.6475095749	0.1588415354	19.24269485	23.54918861	21.55414581	1.0
[right_finger3]
13	10.07661057	3.347557783	-1.489186764	-84.28975677	13.1826582	87.76701355	1.0
14	10.07661057	3.347557783	-1.489186764	-84.28975677	13.1826582	87.76701355	1.0
15	10.07661057	3.347557783	-1.489186764	-84.28975677	13.1826582	87.76701355	1.0
16	10.07661057	3.347557783	-1.489186764	-84.28975677	13.1826582	87.76701355	1.0
[right_finger4]
13	-1.201135993	3.376283169	11.27149582	-190.2575378	16.2514534	124.4265747	1.0
14	-1.201135993	3.376283169	11.27149582	-190.2575378	16.2514534	124.4265747	1.0
15	-1.201135993	3.376283169	11.27149582	-190.2575378	16.2514534	124.4265747	1.0
16	-1.201135993	3.376283169	11.27149582	-190.2575378	16.2514534	124.4265747	1.0
[right_finger5]
13	-6.853637218	4.493112087	-5.936321735	34.39846039	4.028532028	79.4876709	1.0
14	-6.853637218	4.493112087	-5.936321735	34.39846039	4.028532028	79.4876709	1.0
15	-6.853637218	4.493112087	-5.936321735	34.39846039	4.028532028	79.4876709	1.0
16	-6.853637218	4.493112087	-5.936321735	34.39846039	4.028532028	79.4876709	1.0
[joint3]
13	-1.618329048	-17.01193047	0.02229473554	12.05223274	-0.01765020005	-0.02966786362	1.0
14	-1.494011283	-17.00884056	0.05256688595	9.125100136	-0.07437650859	-0.1250179708	1.0
15	-1.273587704	-17.00335693	0.1062414646	3.935094118	-0.1749561131	-0.294080168	1.0
16	-0.9610074162	-16.99558449	0.1823567003	-3.424788713	-0.3175868094	-0.5338252187	1.0
[right_shoulder2]
13	-14.91590023	-0.6211000085	-0.9477797747	-3.596898317	5.32349968	-14.39627934	1.0
14	-14.91590023	-0.6211000085	-0.9477797747	-3.413378	3.242487907	-13.52299023	1.0
15	-14.91590023	-0.6211000085	-0.9477797747	-3.087984324	-0.4472886622	-11.9745903	1.0
16	-14.91590023	-0.6211000085	-0.9477797747	-2.626547098	-5.67971468	-9.778822899	1.0
[right_elbow2]
13	12.35453224	1.091821671	2.608444214	7.827696323	27.18702698	2.091388464	1.0
14	12.27777958	0.7827095985	2.530205011	9.099788666	25.90628624	5.093193054	1.0
15	12.14169121	0.2346327752	2.391482353	11.35529518	23.63544846	10.41559601	1.0
16	11.94870567	-0.5425881147	2.194761276	14.55380154	20.41519737	17.96322823	1.0
[right_wrist2]
13	11.37348366	-5.659013271	-0.5602906942	3.471017122	11.53499222	6.721328735	1.0
14	11.37348366	-5.659013271	-0.5602906942	2.381554365	11.92063904	3.142079115	1.0
15	11.37348366	-5.659013271	-0.5602906942	0.4498621225	12.60441494	-3.204172134	1.0
16	11.37348366	-5.659013271	-0.5602906942	-2.289446115	13.57406902	-12.20371437	1.0
[right_hand2]
13	8.313048363	0.02588133886	-0.2132965624	5.848009109	29.48404503	17.55009079	1.0
14	8.313048363	0.02588133886	-0.2132965624	7.377863407	28.60035515	19.01592827	1.0
15	8.313048363	0.02588133886	-0.2132965624	10.09039783	27.03351784	21.61496162	1.0
16	8.313048363	0.02588133886	-0.2132965624	13.93700886	24.81160164	25.30061531	1.0
[right_finger6]
13	-10.07661057	-3.347557783	1.489186764	-83.6856308	28.25859642	89.45962524	1.0
14	-10.07661057	-3.347557783	1.489186764	-83.6856308	28.25859642	89.45962524	1.0
15	-10.07661057	-3.347557783	1.489186764	-83.6856308	28.25859642	89.45962524	1.0
16	-10.07661057	-3.347557783	1.489186764	-83.6856308	28.25859642	89.45962524	1.0
[right_finger7]
13	1.201135993	-3.376283169	-11.27149582	-196.815567	9.285179138	95.4122467	1.0
14	1.201135993	-3.376283169	-11.27149582	-196.815567	9.285179138	95.4122467	1.0
15	1.201135993	-3.376283169	-11.27149582	-196.815567	9.285179138	95.4122467	1.0
16	1.201135993	-3.376283169	-11.27149582	-196.815567	9.285179138	95.4122467	1.0
[right_finger8]
13	6.853637218	-4.493112087	5.936321735	33.30503464	-9.988982201	100.1356735	1.0
14	6.853637218	-4.493112087	5.936321735	33.30503464	-9.988982201	100.1356735	1.0
15	6.853637218	-4.493112087	5.936321735	33.30503464	-9.988982201	100.1356735	1.0
16	6.853637218	-4.493112087	5.936321735	33.30503464	-9.988982201	100.1356735	1.0
[Center_pelvis]
13	-5.616972446	-0.3766000271	2.04698658	0	0	0	1.0
14	-5.616972446	-0.3766000271	2.04698658	0	0	0	1.0
15	-5.616972446	-0.3766000271	2.04698658	0	0	0	1.0
16	-5.616972446	-0.3766000271	2.04698658	0	0	0	1.0
[left_pelvs]
13	11.08986378	-0.01586683653	-0.09214995801	8.576001167	-0.1562882662	0.4822564423	1.0
14	11.08986378	-0.01586683653	-0.09214995801	9.517683983	-0.6585861444	2.032189369	1.0
15	11.08986378	-0.01586683653	-0.09214995801	11.18735123	-1.549194336	4.780326366	1.0
16	11.08986378	-0.01586683653	-0.09214995801	13.55508518	-2.81215477	8.677424431	1.0
[left_leg]
13	8.450808053e-008	-5.682914734	0.3641465604	0.244511798	48.19800568	-0.01185826026	1.0
14	8.450808053e-008	-5.682914734	0.3641465604	1.030352831	44.10669708	-0.04996975139	1.0
15	8.450808053e-008	-5.682914734	0.3641465604	2.423702478	36.85253143	-0.1175440028	1.0
16	8.450808053e-008	-5.682914734	0.3641465604	4.399594307	26.56548691	-0.2133702189	1.0
[left_knee]
13	-10.69747543	0.03457061574	-6.811455844e-009	0.3158234954	-5.640825272	-0.2207917571	1.0
14	-10.69747543	0.03457061574	-6.811455844e-009	1.330854774	-10.0433321	-0.9303985238	1.0
15	-10.69747543	0.03457061574	-6.811455844e-009	3.130573988	-17.84927559	-2.188579321	1.0
16	-10.69747543	0.03457061574	-6.811455844e-009	5.682733536	-28.918787	-3.972790241	1.0
[left_foot]
13	-14.54718971	-0.01193539705	1.933258442e-009	10.2876749	0.2903870642	-0.1098568365	1.0
14	-14.54718971	-0.01193539705	1.933258442e-009	6.227452755	1.223667622	-0.4629277587	1.0
15	-14.54718971	-0.01193539705	1.933258442e-009	-0.9715979695	2.878437281	-1.088946581	1.0
16	-14.54718971	-0.01193539705	1.933258442e-009	-11.18048191	5.225045681	-1.976695895	1.0
[right_pelvis]
13	-10.5868988	0.4465443194	0.2088862956	-9.943107605	3.146865538e-018	0.3247529566	1.0
14	-10.5868988	0.4465443194	0.2088862956	-9.776328087	1.32606358e-017	1.36848259	1.0
15	-10.5868988	0.4465443194	0.2088862956	-9.480618477	3.119303715e-017	3.21908617	1.0
16	-10.5868988	0.4465443194	0.2088862956	-9.061275482	5.662275624e-017	5.843403816	1.0
[right_leg]
13	0.09169664979	-5.593489647	0.06310817599	0.01535053551	-49.68541718	-0.3061440885	1.0
14	0.09169664979	-5.593489647	0.06310817599	0.06468591094	-42.80896759	-1.290066481	1.0
15	0.09169664979	-5.593489647	0.06310817599	0.1521608829	-30.61655426	-3.034627438	1.0
16	0.09169664979	-5.593489647	0.06310817599	0.2762080729	-13.3266468	-5.50856781	1.0
[right_knee]
13	10.69750977	-0.03459574655	-4.718447855e-015	35.88664627	-39.30038452	-5.583442211	1.0
14	10.69750977	-0.03459574655	-4.718447855e-015	32.11556244	-35.48348236	-4.996716499	1.0
15	10.69750977	-0.03459574655	-4.718447855e-015	25.42918587	-28.71586037	-3.956413031	1.0
16	10.69750977	-0.03459574655	-4.718447855e-015	15.94731426	-19.11877632	-2.481171131	1.0
[right_foot]
13	14.54718685	0.01191107463	1.774880243e-010	-10.27794933	30.92003059	-11.26275063	1.0
14	14.54718685	0.01191107463	1.774880243e-010	-9.197912216	27.67085838	-10.07922554	1.0
15	14.54718685	0.01191107463	1.774880243e-010	-7.282928944	21.9098568	-7.980756283	1.0
16	14.54718685	0.01191107463	1.774880243e-010	-4.567317486	13.74024963	-5.004942894	1.0
[EndOfFile]
